<svg xmlns="http://www.w3.org/2000/svg" xmlns:xlink="http://www.w3.org/1999/xlink" viewBox="0 0 51 65" fill="#fff" fill-rule="evenodd" stroke="#000" stroke-linecap="round" stroke-linejoin="round"><use xlink:href="#D" x=".5" y=".5"/><defs><filter id="A" x="-6%" y="-4.6875%" width="116%" height="112.5%"><feGaussianBlur in="SourceAlpha" stdDeviation="1"/><feOffset dx="2" dy="2" result="B"/><feFlood flood-color="#000" flood-opacity=".2"/><feComposite in2="B" operator="in" result="C"/><feMerge><feMergeNode in="C"/><feMergeNode in="SourceGraphic"/></feMerge></filter><filter id="B" x="-27.5%" y="-32.5%" width="160%" height="160%"><feGaussianBlur in="SourceAlpha" stdDeviation="2"/><feOffset dx="1" dy="-1" result="B"/><feFlood flood-color="#000" flood-opacity=".2"/><feComposite in2="B" operator="in" result="C"/><feMerge><feMergeNode in="C"/><feMergeNode in="SourceGraphic"/></feMerge></filter><path id="C" d="M19.764 39.263q0-.651.439-1.057.439-.406 1.099-.406.67 0 1.109.406.439.406.439 1.057 0 .642-.434 1.043-.434.401-1.114.401-.67 0-1.104-.401-.434-.401-.434-1.043z"/></defs><symbol id="D" overflow="visible"><g fill="none" stroke="#fff" stroke-linejoin="miter" stroke-width="4"><path d="M30.5 26.5c-8.222 0-8.222 18.5-16.444 18.5"/><path d="M22.689 35.133h6.167"/></g><path d="M50 20L30 0H5a4.99 4.99 0 0 0-5 5v54a4.99 4.99 0 0 0 5 5h40a4.99 4.99 0 0 0 5-5z" fill="#f44336" stroke="none" filter="url(#A)"/><defs/><g transform="matrix(-1 0 0 -1 50 20)"><path d="M20 20L0 0h15a4.99 4.99 0 0 1 5 5z" fill="#ef9a9a" stroke="none" filter="url(#B)"/><defs/></g><g stroke="none"><path d="M13.441 42.471L12.913 44q-3.397-.953-3.397-4.388v-1.878q0-1.991-1.68-1.991V33.79q1.642 0 1.68-1.878v-2.001q0-1.746.849-2.821.849-1.076 2.548-1.557l.528 1.519q-.717.264-1.085.92-.368.656-.387 1.817v1.982q0 2.133-1.689 2.991 1.689.868 1.689 3.01v2.001q.047 2.208 1.472 2.699z"/><use xlink:href="#C"/><use xlink:href="#C" x="5.614"/><path d="M35.465 44l-.528-1.529q1.434-.509 1.472-2.736v-2.001q0-2.132 1.727-2.963-1.727-.83-1.727-3.01v-1.972q-.038-2.199-1.472-2.737l.528-1.519q1.689.472 2.538 1.543.849 1.071.859 2.807v2.029q.038 1.878 1.68 1.878v1.953q-1.68 0-1.68 1.972v2.048q-.075 3.303-3.397 4.237z"/></g></symbol></svg>