<?xml version="1.0" encoding="utf-8"?>
<!-- Generator: Adobe Illustrator 26.5.0, SVG Export Plug-In . SVG Version: 6.00 Build 0)  -->
<svg version="1.0" id="katman_1" xmlns="http://www.w3.org/2000/svg" xmlns:xlink="http://www.w3.org/1999/xlink" x="0px" y="0px"
	 viewBox="0 0 1190.55 841.89" style="enable-background:new 0 0 1190.55 841.89;" xml:space="preserve">
<style type="text/css">
	.st0{fill:#1D1F21;}
</style>
<path class="st0" d="M118.65,396.88c2.74-0.57,5.55-0.98,8.37-1.22l0,0l0,0l21.88-2.08L119.18,361
	c-8.94-9.84-13.88-22.58-13.88-35.88H80.73c0,19.43,7.23,38.09,20.33,52.46L118.65,396.88z"/>
<path class="st0" d="M195.4,444.61c-2.2,0.41-4.45,0.69-6.7,0.94l0,0l0,0l-23.68,2.25l29.64,32.5c8.94,9.84,13.88,22.58,13.88,35.88
	h24.62c0-19.43-7.23-38.05-20.33-52.46L195.4,444.61z"/>
<path class="st0" d="M236.1,372.39c-4.04-20.09-19.8-34.7-40.13-37.27l-3.76-0.49c-12.7-1.59-22.29-12.45-22.29-25.23v-13.1
	c11.27-4.69,19.19-15.8,19.19-28.74c0-17.19-13.92-31.11-31.11-31.11s-31.11,13.92-31.11,31.11c0,12.66,7.59,23.56,18.45,28.41
	v13.43c0,25.19,18.82,46.54,43.8,49.64l3.76,0.49c11.72,1.47,17.55,10.12,19.11,17.72c1.55,7.59-0.45,17.84-10.7,23.76
	c-5.02,2.9-10.45,4.65-16.21,5.18l-56.46,5.31c-9.31,0.9-18.13,3.71-26.21,8.37c-17.76,10.29-26.62,29.88-22.53,49.97
	c4.04,20.09,19.8,34.7,40.13,37.27l3.76,0.49c12.7,1.59,22.29,12.45,22.29,25.23v11.92c-11.23,4.69-19.11,15.8-19.11,28.7
	c0,17.19,13.92,31.11,31.11,31.11s31.11-13.92,31.11-31.11c0-12.7-7.63-23.64-18.53-28.45v-12.17c0-25.19-18.82-46.54-43.8-49.64
	l-3.76-0.49c-11.72-1.47-17.55-10.12-19.11-17.72c-1.55-7.59,0.45-17.84,10.7-23.76c5.02-2.9,10.45-4.65,16.21-5.18l56.46-5.31
	c9.31-0.9,18.13-3.71,26.21-8.37C231.32,412.07,240.14,392.47,236.1,372.39z"/>
<path class="st0" d="M661.32,512.01h-82.71c-28.49,0-51.68-23.19-51.68-51.68v-75.77c0-28.49,23.19-51.68,51.68-51.68h44.21
	c28.49,0,51.68,23.19,51.68,51.68v11.92c0,21.92-17.84,39.76-39.76,39.76h-84.14v24.13c0,15.43,12.57,28.01,28.01,28.01h82.67v23.64
	H661.32z M550.65,412.56h84.14c8.86,0,16.08-7.23,16.08-16.08v-11.92c0-15.43-12.57-28.01-28.01-28.01h-44.25
	c-15.43,0-28.01,12.57-28.01,28.01v28.01H550.65z"/>
<rect x="1043.76" y="347.77" class="st0" width="23.68" height="161.34"/>
<path class="st0" d="M965.41,512.01H921.2c-28.49,0-51.68-23.19-51.68-51.68v-75.77c0-28.49,23.19-51.68,51.68-51.68h44.21
	c28.49,0,51.68,23.19,51.68,51.68v75.81C1017.06,488.86,993.91,512.01,965.41,512.01z M921.2,356.55
	c-15.43,0-28.01,12.57-28.01,28.01v75.81c0,15.43,12.57,28.01,28.01,28.01h44.21c15.43,0,28.01-12.57,28.01-28.01v-75.81
	c0-15.43-12.57-28.01-28.01-28.01H921.2L921.2,356.55z"/>
<path class="st0" d="M881.36,424.36"/>
<rect x="1094.99" y="296.42" class="st0" width="23.68" height="212.73"/>
<rect x="1043.76" y="297.19" class="st0" width="23.68" height="22.17"/>
<path class="st0" d="M792.24,513.97h-44.21c-28.49,0-51.68-23.19-51.68-51.68v-75.81c0-28.49,23.19-51.68,51.68-51.68h44.21
	c28.49,0,51.68,23.19,51.68,51.68v11.84h-23.68v-11.84c0-15.43-12.57-28.01-28.01-28.01h-44.21c-15.43,0-28.01,12.57-28.01,28.01
	v75.81c0,15.43,12.57,28.01,28.01,28.01h44.21c15.43,0,28.01-12.57,28.01-28.01v-11.84h23.68v11.84
	C843.92,490.78,820.74,513.97,792.24,513.97z"/>
<path class="st0" d="M708.19,426.32"/>
<path class="st0" d="M491.94,516.13h-23.68v-8.16c0-14.12-5.35-27.64-15.1-38.09l-0.33-0.33l-22.37-28.21l18.57-14.7l21.76,27.47
	c13.64,14.78,21.11,33.92,21.11,53.85v8.16H491.94z"/>
<path class="st0" d="M368.94,516.13l-23.68-0.08l0.45-150.8c0.04-17.31,14.33-31.35,31.88-31.35h0.12
	c11.72,0.12,23.07-0.08,34.09-0.24c11.14-0.16,22.66-0.37,34.7-0.24c7.88,0.08,22.86,2,34.95,13.96c7.96,7.84,12.9,18.86,14,31.03
	c1.02,11.59-1.51,23.11-7.18,32.41c-9.76,16.13-26,21.68-32.54,23.31l-16.9,4.29c-13.1,3.18-25.88,6.41-38.21,9.51
	c-10.21,2.57-20.66,5.23-31.43,7.88L368.94,516.13z M377.55,357.57c-4.49,0.04-8.12,3.51-8.16,7.76l-0.2,66.05
	c8.7-2.16,17.23-4.33,25.56-6.41c12.37-3.14,25.19-6.37,38.37-9.55l16.78-4.25c3.67-0.9,12.82-4,18.04-12.61
	c6.41-10.57,4.94-26.29-3.23-34.37c-6.37-6.29-15.06-7.06-18.53-7.1c-11.68-0.12-23.07,0.08-34.05,0.24
	C401.03,357.49,389.52,357.69,377.55,357.57z"/>
</svg>
